<svg width="206" height="300" viewBox="0 0 206 300" fill="none" xmlns="http://www.w3.org/2000/svg">
<path d="M130.603 44.0796H76.4423C75.2081 44.0811 74.0248 44.5716 73.1521 45.4434C72.2794 46.3153 71.7884 47.4973 71.7869 48.7303V168.98L71.1662 169.169L57.8797 173.234C57.25 173.425 56.5699 173.36 55.9886 173.051C55.4073 172.742 54.9724 172.216 54.7793 171.587L15.258 42.6256C15.0657 41.9965 15.1312 41.3169 15.4402 40.7361C15.7493 40.1553 16.2765 39.7209 16.906 39.5282L37.3805 33.2654L96.7367 15.1156L117.211 8.85275C117.523 8.75695 117.85 8.72348 118.175 8.75424C118.499 8.785 118.814 8.8794 119.102 9.03203C119.39 9.18465 119.645 9.39251 119.853 9.64372C120.06 9.89492 120.216 10.1845 120.312 10.496L130.414 43.4596L130.603 44.0796Z" fill="#F0F1F5"/>
<path d="M142.422 43.4603L130.247 3.73163C130.044 3.06968 129.713 2.45409 129.272 1.92003C128.831 1.38598 128.289 0.943934 127.678 0.619153C127.066 0.294372 126.396 0.0932181 125.706 0.0271952C125.016 -0.0388277 124.32 0.0315736 123.658 0.234369L94.8718 9.03644L35.5188 27.1894L6.73291 35.9945C5.39568 36.4047 4.27599 37.3282 3.61962 38.5623C2.96325 39.7963 2.82383 41.2401 3.23197 42.5767L44.845 178.353C45.1765 179.432 45.8455 180.376 46.7538 181.048C47.662 181.719 48.7617 182.082 49.8915 182.083C50.4144 182.083 50.9344 182.005 51.4339 181.85L71.1666 175.817L71.7873 175.625V174.977L71.1666 175.166L51.2509 181.258C50.0705 181.618 48.7956 181.495 47.7059 180.916C46.6161 180.338 45.8004 179.352 45.4378 178.173L3.82798 42.3938C3.64831 41.81 3.58569 41.1964 3.64371 40.5884C3.70172 39.9804 3.87923 39.3897 4.16607 38.8503C4.45291 38.3109 4.84345 37.8333 5.31532 37.4449C5.78719 37.0565 6.33112 36.7648 6.91597 36.5867L35.7018 27.7815L95.055 9.63172L123.841 0.826554C124.284 0.691313 124.746 0.622357 125.209 0.621925C126.205 0.624158 127.173 0.944727 127.973 1.53668C128.773 2.12863 129.362 2.96086 129.654 3.91146L141.773 43.4603L141.966 44.0804H142.611L142.422 43.4603Z" fill="#747178"/>
<path d="M41.0752 39.6296C40.477 39.6292 39.8947 39.4373 39.4137 39.0821C38.9327 38.7268 38.5783 38.2269 38.4026 37.6557L34.405 24.6117C34.2976 24.2613 34.2603 23.8932 34.2953 23.5285C34.3303 23.1637 34.4369 22.8094 34.609 22.4858C34.7811 22.1621 35.0153 21.8756 35.2983 21.6424C35.5813 21.4092 35.9075 21.234 36.2582 21.1268L90.8626 4.42679C91.5709 4.21086 92.3361 4.2845 92.9902 4.63156C93.6442 4.97862 94.1337 5.57074 94.3512 6.27796L98.3488 19.3221C98.5648 20.0297 98.491 20.7941 98.1436 21.4474C97.7962 22.1008 97.2036 22.5898 96.4957 22.8072L41.8912 39.5072C41.6268 39.5882 41.3518 39.6295 41.0752 39.6296Z" fill="#DC1D13"/>
<path d="M62.0159 13.9378C65.444 13.9378 68.2231 11.1616 68.2231 7.73696C68.2231 4.31234 65.444 1.53613 62.0159 1.53613C58.5878 1.53613 55.8087 4.31234 55.8087 7.73696C55.8087 11.1616 58.5878 13.9378 62.0159 13.9378Z" fill="#DC1D13"/>
<path d="M62.0159 11.6637C64.1867 11.6637 65.9465 9.90568 65.9465 7.7371C65.9465 5.56853 64.1867 3.81055 62.0159 3.81055C59.8451 3.81055 58.0853 5.56853 58.0853 7.7371C58.0853 9.90568 59.8451 11.6637 62.0159 11.6637Z" fill="#F0F1F5"/>
<path d="M190.034 180.498H85.1324C84.433 180.497 83.7625 180.219 83.2679 179.725C82.7734 179.231 82.4952 178.561 82.4944 177.863V52.2958C82.4952 51.5971 82.7734 50.9272 83.2679 50.4331C83.7625 49.9391 84.433 49.6612 85.1324 49.6604H190.034C190.733 49.6612 191.404 49.9391 191.898 50.4332C192.393 50.9272 192.671 51.5971 192.672 52.2958V177.863C192.671 178.561 192.393 179.231 191.898 179.725C191.404 180.219 190.733 180.497 190.034 180.498Z" fill="#F0F1F5"/>
<path d="M141.773 43.4597H76.4422C75.0435 43.4617 73.7027 44.0176 72.7137 45.0057C71.7246 45.9937 71.1681 47.3331 71.1661 48.7304V175.165L71.7869 174.976V48.7304C71.7884 47.4975 72.2793 46.3154 73.152 45.4436C74.0248 44.5718 75.208 44.0813 76.4422 44.0798H141.965L141.773 43.4597ZM198.724 43.4597H76.4422C75.0435 43.4617 73.7027 44.0176 72.7137 45.0057C71.7246 45.9937 71.1681 47.3331 71.1661 48.7304V190.729C71.1681 192.127 71.7246 193.466 72.7137 194.454C73.7027 195.442 75.0435 195.998 76.4422 196H198.724C200.123 195.998 201.463 195.442 202.452 194.454C203.441 193.466 203.998 192.127 204 190.729V48.7304C203.998 47.3331 203.441 45.9937 202.452 45.0057C201.463 44.0176 200.123 43.4617 198.724 43.4597ZM203.379 190.729C203.378 191.962 202.887 193.144 202.014 194.016C201.141 194.888 199.958 195.378 198.724 195.38H76.4422C75.208 195.378 74.0248 194.888 73.152 194.016C72.2793 193.144 71.7884 191.962 71.7869 190.729V48.7304C71.7884 47.4975 72.2793 46.3154 73.152 45.4436C74.0248 44.5718 75.208 44.0813 76.4422 44.0798H198.724C199.958 44.0813 201.141 44.5718 202.014 45.4436C202.887 46.3154 203.378 47.4975 203.379 48.7304V190.729Z" fill="#747178"/>
<path d="M166.136 57.1015H109.03C108.289 57.1006 107.58 56.8064 107.056 56.2833C106.532 55.7602 106.238 55.0509 106.237 54.3111V40.6693C106.238 39.9295 106.532 39.2202 107.056 38.6971C107.58 38.174 108.289 37.8797 109.03 37.8789H166.136C166.877 37.8797 167.587 38.174 168.11 38.6971C168.634 39.2202 168.929 39.9295 168.929 40.6693V54.3111C168.929 55.0509 168.634 55.7602 168.11 56.2833C167.587 56.8064 166.877 57.1006 166.136 57.1015Z" fill="#DC1D13"/>
<path d="M137.583 38.8091C141.011 38.8091 143.79 36.0329 143.79 32.6083C143.79 29.1837 141.011 26.4075 137.583 26.4075C134.155 26.4075 131.376 29.1837 131.376 32.6083C131.376 36.0329 134.155 38.8091 137.583 38.8091Z" fill="#DC1D13"/>
<path d="M137.583 36.3851C139.671 36.3851 141.364 34.6941 141.364 32.6082C141.364 30.5223 139.671 28.8313 137.583 28.8313C135.495 28.8313 133.802 30.5223 133.802 32.6082C133.802 34.6941 135.495 36.3851 137.583 36.3851Z" fill="#F0F1F5"/>
<path d="M25.452 265.8V291H22.5L7.38 272.208V291H3.78V265.8H6.732L21.852 284.592V265.8H25.452ZM40.6628 291.216C38.7668 291.216 37.0628 290.796 35.5508 289.956C34.0388 289.116 32.8508 287.964 31.9868 286.5C31.1468 285.012 30.7268 283.332 30.7268 281.46C30.7268 279.588 31.1468 277.92 31.9868 276.456C32.8508 274.968 34.0388 273.816 35.5508 273C37.0628 272.16 38.7668 271.74 40.6628 271.74C42.5588 271.74 44.2508 272.16 45.7388 273C47.2508 273.816 48.4268 274.968 49.2668 276.456C50.1308 277.92 50.5628 279.588 50.5628 281.46C50.5628 283.332 50.1308 285.012 49.2668 286.5C48.4268 287.964 47.2508 289.116 45.7388 289.956C44.2508 290.796 42.5588 291.216 40.6628 291.216ZM40.6628 288.192C41.8868 288.192 42.9788 287.916 43.9388 287.364C44.9228 286.788 45.6908 285.996 46.2428 284.988C46.7948 283.956 47.0708 282.78 47.0708 281.46C47.0708 280.14 46.7948 278.976 46.2428 277.968C45.6908 276.936 44.9228 276.144 43.9388 275.592C42.9788 275.04 41.8868 274.764 40.6628 274.764C39.4388 274.764 38.3348 275.04 37.3508 275.592C36.3908 276.144 35.6228 276.936 35.0468 277.968C34.4948 278.976 34.2188 280.14 34.2188 281.46C34.2188 282.78 34.4948 283.956 35.0468 284.988C35.6228 285.996 36.3908 286.788 37.3508 287.364C38.3348 287.916 39.4388 288.192 40.6628 288.192ZM81.5704 284.7H68.1784L65.4064 291H61.6984L73.1104 265.8H76.6744L88.1224 291H84.3424L81.5704 284.7ZM80.3104 281.82L74.8744 269.472L69.4384 281.82H80.3104ZM108.81 271.92V291H105.534V288.12C104.838 289.104 103.914 289.872 102.762 290.424C101.634 290.952 100.398 291.216 99.054 291.216C96.51 291.216 94.506 290.52 93.042 289.128C91.578 287.712 90.846 285.636 90.846 282.9V271.92H94.302V282.504C94.302 284.352 94.746 285.756 95.634 286.716C96.522 287.652 97.794 288.12 99.45 288.12C101.274 288.12 102.714 287.568 103.77 286.464C104.826 285.36 105.354 283.8 105.354 281.784V271.92H108.81ZM123.705 291.216C121.761 291.216 120.021 290.796 118.485 289.956C116.973 289.116 115.785 287.964 114.921 286.5C114.057 285.012 113.625 283.332 113.625 281.46C113.625 279.588 114.057 277.92 114.921 276.456C115.785 274.968 116.973 273.816 118.485 273C120.021 272.16 121.761 271.74 123.705 271.74C125.433 271.74 126.969 272.088 128.313 272.784C129.681 273.48 130.737 274.488 131.481 275.808L128.853 277.5C128.253 276.588 127.509 275.904 126.621 275.448C125.733 274.992 124.749 274.764 123.669 274.764C122.421 274.764 121.293 275.04 120.285 275.592C119.301 276.144 118.521 276.936 117.945 277.968C117.393 278.976 117.117 280.14 117.117 281.46C117.117 282.804 117.393 283.992 117.945 285.024C118.521 286.032 119.301 286.812 120.285 287.364C121.293 287.916 122.421 288.192 123.669 288.192C124.749 288.192 125.733 287.964 126.621 287.508C127.509 287.052 128.253 286.368 128.853 285.456L131.481 287.112C130.737 288.432 129.681 289.452 128.313 290.172C126.969 290.868 125.433 291.216 123.705 291.216ZM146.93 289.884C146.426 290.316 145.802 290.652 145.058 290.892C144.314 291.108 143.546 291.216 142.754 291.216C140.834 291.216 139.346 290.7 138.29 289.668C137.234 288.636 136.706 287.16 136.706 285.24V274.764H133.466V271.92H136.706V267.744H140.162V271.92H145.634V274.764H140.162V285.096C140.162 286.128 140.414 286.92 140.918 287.472C141.446 288.024 142.19 288.3 143.15 288.3C144.206 288.3 145.106 288 145.85 287.4L146.93 289.884ZM151.108 271.92H154.564V291H151.108V271.92ZM152.836 268.248C152.164 268.248 151.6 268.032 151.144 267.6C150.712 267.168 150.496 266.64 150.496 266.016C150.496 265.392 150.712 264.864 151.144 264.432C151.6 263.976 152.164 263.748 152.836 263.748C153.508 263.748 154.06 263.964 154.492 264.396C154.948 264.804 155.176 265.32 155.176 265.944C155.176 266.592 154.948 267.144 154.492 267.6C154.06 268.032 153.508 268.248 152.836 268.248ZM169.335 291.216C167.439 291.216 165.735 290.796 164.223 289.956C162.711 289.116 161.523 287.964 160.659 286.5C159.819 285.012 159.399 283.332 159.399 281.46C159.399 279.588 159.819 277.92 160.659 276.456C161.523 274.968 162.711 273.816 164.223 273C165.735 272.16 167.439 271.74 169.335 271.74C171.231 271.74 172.923 272.16 174.411 273C175.923 273.816 177.099 274.968 177.939 276.456C178.803 277.92 179.235 279.588 179.235 281.46C179.235 283.332 178.803 285.012 177.939 286.5C177.099 287.964 175.923 289.116 174.411 289.956C172.923 290.796 171.231 291.216 169.335 291.216ZM169.335 288.192C170.559 288.192 171.651 287.916 172.611 287.364C173.595 286.788 174.363 285.996 174.915 284.988C175.467 283.956 175.743 282.78 175.743 281.46C175.743 280.14 175.467 278.976 174.915 277.968C174.363 276.936 173.595 276.144 172.611 275.592C171.651 275.04 170.559 274.764 169.335 274.764C168.111 274.764 167.007 275.04 166.023 275.592C165.063 276.144 164.295 276.936 163.719 277.968C163.167 278.976 162.891 280.14 162.891 281.46C162.891 282.78 163.167 283.956 163.719 284.988C164.295 285.996 165.063 286.788 166.023 287.364C167.007 287.916 168.111 288.192 169.335 288.192ZM194.202 271.74C196.626 271.74 198.546 272.448 199.962 273.864C201.402 275.256 202.122 277.308 202.122 280.02V291H198.666V280.416C198.666 278.568 198.222 277.176 197.334 276.24C196.446 275.304 195.174 274.836 193.518 274.836C191.646 274.836 190.17 275.388 189.09 276.492C188.01 277.572 187.47 279.132 187.47 281.172V291H184.014V271.92H187.326V274.8C188.022 273.816 188.958 273.06 190.134 272.532C191.334 272.004 192.69 271.74 194.202 271.74Z" fill="black"/>
</svg>
