<svg width="24" height="24" viewBox="0 0 24 24" fill="none" xmlns="http://www.w3.org/2000/svg">
<path d="M12.0522 2.88607C12.3672 2.10457 13.2447 1.26607 14.3712 1.57807C15.2562 1.82407 15.8307 2.35957 16.1607 3.07357C16.4667 3.73807 16.5417 4.51957 16.5567 5.26657C16.5717 6.06757 16.4037 7.03057 16.2072 7.87207C16.1194 8.24458 16.0219 8.61471 15.9147 8.98207H17.9922C18.4585 8.98203 18.9183 9.09069 19.3353 9.29941C19.7523 9.50813 20.1148 9.81117 20.3942 10.1845C20.6736 10.5578 20.8622 10.9911 20.9449 11.45C21.0276 11.9089 21.0022 12.3807 20.8707 12.8281L18.8247 19.7971C18.6841 20.2752 18.4497 20.7205 18.1351 21.1069C17.8205 21.4934 17.4321 21.8133 16.9925 22.0479C16.5528 22.2825 16.0708 22.4272 15.5747 22.4734C15.0785 22.5196 14.5781 22.4665 14.1027 22.3171L6.06867 19.7941C5.63419 19.6577 5.23646 19.4242 4.90562 19.1113C4.57478 18.7984 4.31951 18.4143 4.15917 17.9881L3.37917 15.9121C3.13094 15.2514 3.1236 14.5243 3.35844 13.8587C3.59329 13.1932 4.05528 12.6317 4.66317 12.2731L7.47117 10.6156C7.75413 10.3918 8.01666 10.1433 8.25567 9.87307C8.77167 9.29107 9.48117 8.32057 10.1937 6.80707C10.5012 6.15307 10.7592 5.63707 10.9932 5.17207C11.3727 4.41607 11.6907 3.78607 12.0522 2.88607ZM8.27817 11.8801C8.26976 11.8852 8.26126 11.8902 8.25267 11.8951L5.42517 13.5661C5.12122 13.7454 4.89023 14.0261 4.77281 14.3589C4.65538 14.6917 4.65905 15.0552 4.78317 15.3856L5.56317 17.4616C5.64342 17.6748 5.77117 17.8669 5.93672 18.0233C6.10228 18.1798 6.30129 18.2965 6.51867 18.3646L14.5497 20.8876C14.8351 20.9775 15.1356 21.0095 15.4336 20.9818C15.7316 20.9541 16.0211 20.8672 16.2851 20.7263C16.5491 20.5854 16.7823 20.3932 16.9711 20.161C17.1599 19.9288 17.3005 19.6613 17.3847 19.3741L19.4292 12.4051C19.4949 12.1813 19.5076 11.9453 19.4662 11.7158C19.4248 11.4863 19.3305 11.2696 19.1907 11.083C19.0509 10.8963 18.8696 10.7448 18.661 10.6405C18.4524 10.5362 18.2224 10.4819 17.9892 10.4821H14.8902C14.7702 10.482 14.652 10.4531 14.5454 10.3979C14.4389 10.3427 14.3472 10.2627 14.278 10.1647C14.2087 10.0667 14.164 9.95348 14.1476 9.83461C14.1312 9.71575 14.1436 9.59468 14.1837 9.48157C14.3337 9.05857 14.5617 8.32657 14.7477 7.53007C14.9367 6.72307 15.0702 5.90707 15.0582 5.29507C15.0432 4.59157 14.9697 4.07107 14.7987 3.70057C14.6517 3.37957 14.4222 3.14857 13.9707 3.02407C13.9062 3.00607 13.8297 3.01057 13.7307 3.07507C13.6014 3.16735 13.5023 3.29571 13.4457 3.44407C13.1002 4.28672 12.7173 5.11354 12.2982 5.92207C12.0657 6.38407 11.8212 6.87307 11.5527 7.44457C10.7817 9.08407 9.99267 10.1761 9.37767 10.8676C9.07167 11.2126 8.81067 11.4586 8.61867 11.6221C8.52116 11.705 8.42007 11.7835 8.31567 11.8576L8.29167 11.8726L8.28417 11.8786L8.27967 11.8801H8.27817Z" fill="#19202A"/>
</svg>
