<svg width="24" height="24" viewBox="0 0 24 24" fill="none" xmlns="http://www.w3.org/2000/svg">
<path d="M12.001 1.16008C7.73823 1.10226 3.6309 3.84566 2.01399 7.78342C0.325103 11.6524 1.20263 16.4586 4.1569 19.476C6.99827 22.5345 11.6798 23.6571 15.6005 22.2261C19.6639 20.8424 22.6637 16.852 22.8267 12.5571C23.1002 8.33678 20.6173 4.12634 16.8156 2.28801C15.3269 1.54511 13.6645 1.1577 12.001 1.16008ZM12.001 2.33195C16.2114 2.25872 20.2157 5.28315 21.3027 9.35066C22.4398 13.1816 20.9018 17.6171 17.6007 19.8861C14.1716 22.4065 9.08656 22.2242 5.8484 19.4624C2.58573 16.8611 1.41785 12.0494 3.09182 8.23372C4.54269 4.70623 8.18466 2.28717 12.001 2.33195ZM7.08353 8.24935V15.7505H16.9185V8.24933H7.08353V8.24935ZM9.2683 9.42127H14.7329C13.765 10.0169 12.797 11.3244 11.8292 11.467C10.9756 10.7851 10.1219 10.1032 9.26829 9.42127H9.2683ZM15.748 10.1112V14.5786H8.25399V10.1115C9.50262 11.1094 10.7512 12.1074 11.9999 13.1052C13.2493 12.1072 14.4987 11.1092 15.748 10.1112Z" fill="#19202A"/>
</svg>
